# xmcd
#
# Track frame offsets:
#	150
#	14133
#	27768
#	41482
#	55204
#	69441
#	83266
#	96821
#	110829
#	124846
#	138638
#	152454
#	166423
#	180249
#	194169
#	207785
#	221384
#	235471
#	248162
#	261579
#	275095
#	288980
#	303010
#	316714
#	330598
#
# Disc length: 4581 seconds
#
# Revision: 1
# Processed by: cddbd v1.5.2PL0 Copyright (c) Steve Scherf et al.
# Submitted via: EasyCDDAExtractor 2010.6.0.0
#
DISCID=6611e319
DTITLE=Various Artist - Melodifestivalen 10 År På Turné 2002-2011
DYEAR=2011
DGENRE=Pop
TTITLE0=Salem Al Fakir - Keep On Walking
TTITLE1=Shirley Clamp - Min Kärlek
TTITLE2=Darin - You're Out Of My Life
TTITLE3=Patrik Isaksson - Faller Du Sa Faller Jag
TTITLE4=Kalle Moraeus and Orsa Spelmän - Underbart
TTITLE5=Hanna Graaf - Naughty Boy
TTITLE6=Caroline Wennergren - A Different Kind Of Love
TTITLE7=Uno and Irma - God Morgon
TTITLE8=Sarah Dawn Finer - Moving On
TTITLE9=Sanna Nielsen - Empty Room
TTITLE10=Marie Lindberg - Trying To Recall
TTITLE11=Lasse Lind - Du Behöver Aldrig Mer Vara Rädd
TTITLE12=Peter Jöback - Hollow
TTITLE13=Jan Johansen - Sista Andetaget
TTITLE14=Anna Bergendahl - This Is My Life
TTITLE15=Suzzie Tapper - Visst Fins Mirakel
TTITLE16=Andreas Johnson - A Little Bit Of Love
TTITLE17=Eskobar - Hallelujah New World
TTITLE18=Jenny Silver - A Place To Stay
TTITLE19=Caroline Af Ugglas - Snälla, Snälla
TTITLE20=Sonja Alden - För Att Du Finns
TTITLE21=Jessica Andersson - I Did It For Love
TTITLE22=Sarah Dawn Finer - I Remember Love
TTITLE23=Björn Kjellman - Älskar Du Livet
TTITLE24=Pernilla Wahlgren and Jan Johansen - Let Your Spirit Fly
EXTD=
EXTT0=
EXTT1=
EXTT2=
EXTT3=
EXTT4=
EXTT5=
EXTT6=
EXTT7=
EXTT8=
EXTT9=
EXTT10=
EXTT11=
EXTT12=
EXTT13=
EXTT14=
EXTT15=
EXTT16=
EXTT17=
EXTT18=
EXTT19=
EXTT20=
EXTT21=
EXTT22=
EXTT23=
EXTT24=
PLAYORDER=
